<svg xmlns="http://www.w3.org/2000/svg" width="50.684" height="48.05" viewBox="0 0 50.684 48.05">
  <g id="Group_2512" data-name="Group 2512" transform="translate(0)">
    <path id="Path_4631" data-name="Path 4631" d="M3423.7-85.463c-5.245-8.754-4.543-17.631-7.072-21.85s-10.138-11.548-28.551.708S3374.1-80.632,3376.88-75.992c13.018,21.729,56.105,6.034,46.817-9.471Z" transform="translate(-3374.313 113.367)" fill="#efefef"/>
    <path id="Path_4632" data-name="Path 4632" d="M3497.2,193.11V196.1a1.464,1.464,0,0,1-1.42,1.5h-29.825a1.464,1.464,0,0,1-1.42-1.5V193.11Z" transform="translate(-3455.523 -160.852)" fill="#00aeef"/>
    <path id="Path_4633" data-name="Path 4633" d="M3497.2,9.719V27.682h-32.665V9.719a1.464,1.464,0,0,1,1.42-1.5h29.825A1.464,1.464,0,0,1,3497.2,9.719Z" transform="translate(-3455.523 4.576)" fill="#f3f3f1"/>
    <path id="Path_4634" data-name="Path 4634" d="M3586.121,235.777a7.138,7.138,0,0,0,2.13,4.491h-9.942a7,7,0,0,0,2.1-4.491Z" transform="translate(-3557.938 -199.028)" fill="#00aeef"/>
    <path id="Path_4635" data-name="Path 4635" d="M3468.793,197.6h-2.841a1.464,1.464,0,0,1-1.42-1.5V193.11h2.84V196.1A1.464,1.464,0,0,0,3468.793,197.6Z" transform="translate(-3455.523 -160.852)" fill="aqua"/>
    <path id="Path_4636" data-name="Path 4636" d="M3583.251,235.777a7.026,7.026,0,0,1-2.1,4.491h-2.841a7.025,7.025,0,0,0,2.1-4.491Z" transform="translate(-3557.938 -199.028)" fill="aqua"/>
    <path id="Path_4637" data-name="Path 4637" d="M3468.793,8.222a1.464,1.464,0,0,0-1.42,1.5V27.682h-2.84V9.719a1.464,1.464,0,0,1,1.42-1.5Z" transform="translate(-3455.523 4.576)" fill="#d5dbe1"/>
    <path id="Path_4638" data-name="Path 4638" d="M3486.176,23.752h-29.825a2.558,2.558,0,0,1-2.486-2.62V.175a2.558,2.558,0,0,1,2.486-2.62h29.825a2.558,2.558,0,0,1,2.486,2.62V21.132A2.558,2.558,0,0,1,3486.176,23.752ZM3456.351-.2a.365.365,0,0,0-.355.374V21.132a.365.365,0,0,0,.355.374h29.825a.365.365,0,0,0,.355-.374V.175a.365.365,0,0,0-.355-.374Z" transform="translate(-3445.921 14.12)" fill="#0072bc"/>
    <path id="Path_4639" data-name="Path 4639" d="M3578.649,231.86h-9.942a1.068,1.068,0,0,1-.984-.693,1.166,1.166,0,0,1,.232-1.223,5.9,5.9,0,0,0,1.79-3.694,1.106,1.106,0,0,1,1.065-1.124h5.709a1.094,1.094,0,0,1,1.065,1.112,6.049,6.049,0,0,0,1.818,3.708,1.169,1.169,0,0,1,.232,1.223A1.066,1.066,0,0,1,3578.649,231.86Zm-7.775-2.245h5.6a8.368,8.368,0,0,1-.87-2.245h-3.875a8.375,8.375,0,0,1-.858,2.245Z" transform="translate(-3548.336 -189.497)" fill="#0072bc"/>
    <path id="Path_4640" data-name="Path 4640" d="M3464.532,182.444H3497.2v2.245h-32.665Z" transform="translate(-3455.523 -151.308)" fill="#0072bc"/>
    <path id="Path_4641" data-name="Path 4641" d="M3478.169,59.656a.594.594,0,0,1-.533-.34l-1.423-2.937H3474V55.151h2.581a.594.594,0,0,1,.533.34l1.014,2.092L3480,53.066a.588.588,0,0,1,1.08-.033l2.217,4.575h2.213v1.229h-2.581a.6.6,0,0,1-.533-.34l-1.808-3.731-1.876,4.517a.594.594,0,0,1-.53.372Z" transform="translate(-3464.045 -35.214)" fill="#0072bc"/>
    <path id="Path_4642" data-name="Path 4642" d="M3678.8,117.569a.58.58,0,0,1-.521-.34l-1.393-2.937h-2.166v-1.229h2.526a.581.581,0,0,1,.521.34l.992,2.092,1.837-4.517a.571.571,0,0,1,1.057-.033l2.17,4.575h2.166v1.229h-2.526a.581.581,0,0,1-.521-.34l-1.77-3.731-1.837,4.517a.582.582,0,0,1-.518.372Z" transform="translate(-3644.717 -87.031)" fill="#0072bc"/>
    <g id="Group_2509" data-name="Group 2509" transform="translate(5.324 2.421)">
      <path id="Path_4643" data-name="Path 4643" d="M3485.452-85.728l2.008-2.117,1,1.058-2.008,2.117Z" transform="translate(-3479.677 88.111)" fill="#a4afc1"/>
      <path id="Path_4644" data-name="Path 4644" d="M3427.624-27.91l2.008-2.117,1,1.058-2.008,2.117Z" transform="translate(-3427.624 36.378)" fill="#a4afc1"/>
      <path id="Path_4645" data-name="Path 4645" d="M3427.627-89.311l1-1.058,2.009,2.117-1,1.058Z" transform="translate(-3427.627 90.369)" fill="#a4afc1"/>
    </g>
    <g id="Group_2511" data-name="Group 2511" transform="translate(21.107 18.596)">
      <path id="Path_4646" data-name="Path 4646" d="M3611.224,67.056a4.312,4.312,0,0,0-4.053-3.031,4.054,4.054,0,0,0-2.651.978l-.425-.556a4.7,4.7,0,0,1,3.076-1.136,4.992,4.992,0,0,1,4.692,3.511Z" transform="translate(-3602.256 -63.311)" fill="#0072bc"/>
      <g id="Group_2510" data-name="Group 2510" transform="translate(0 2.14)">
        <path id="Path_4647" data-name="Path 4647" d="M3614.145,92.987s2.371-1.105,2.371-3.316V87.8l-2.371-.765-2.371.765v1.871C3611.774,91.882,3614.145,92.987,3614.145,92.987Z" transform="translate(-3609.168 -86.679)" fill="#00aeef"/>
        <path id="Path_4648" data-name="Path 4648" d="M3612.79,89.672V87.8l1.863-.6-.508-.164-2.371.765v1.871c0,2.21,2.371,3.316,2.371,3.316a4.522,4.522,0,0,0,.508-.3,3.775,3.775,0,0,1-1.863-3.019Z" transform="translate(-3609.168 -86.679)" fill="aqua"/>
        <path id="Path_4649" data-name="Path 4649" d="M3611.091,90.306a.322.322,0,0,1-.137-.031c-.1-.049-2.573-1.227-2.573-3.642V84.763a.355.355,0,0,1,.24-.341l2.371-.765a.313.313,0,0,1,.2,0l2.372.765a.355.355,0,0,1,.24.341v1.871c0,2.415-2.468,3.593-2.573,3.642a.313.313,0,0,1-.137.031Zm-2.033-5.279v1.606a2.167,2.167,0,1,0,4.065,0V85.027l-2.033-.656Z" transform="translate(-3606.114 -83.64)" fill="#0072bc"/>
        <path id="Path_4650" data-name="Path 4650" d="M3635.521,120.654v-.714a4.426,4.426,0,0,0,4.3-4.533h.678a5.124,5.124,0,0,1-4.978,5.248Z" transform="translate(-3630.543 -112.062)" fill="#0072bc"/>
        <path id="Path_4651" data-name="Path 4651" d="M3589,95.392a5.233,5.233,0,0,1-3.321-4.946,5.342,5.342,0,0,1,.859-2.935l.557.406a4.612,4.612,0,0,0-.739,2.53,4.519,4.519,0,0,0,2.867,4.272Z" transform="translate(-3585.675 -87.104)" fill="#0072bc"/>
        <path id="Path_4652" data-name="Path 4652" d="M3665.252,88.489a.322.322,0,0,1-.169-.048l-1.441-.877.339-.618,1.148.7.663-1.21.587.357-.833,1.519a.336.336,0,0,1-.294.179Z" transform="translate(-3655.856 -86.14)" fill="#0072bc"/>
        <path id="Path_4653" data-name="Path 4653" d="M3621.819,102.859a.329.329,0,0,1-.24-.1l-1.03-1.086.479-.505.781.823,1.459-1.656.5.486-1.7,1.928a.335.335,0,0,1-.242.114Z" transform="translate(-3617.067 -98.573)" fill="#fff"/>
      </g>
    </g>
  </g>
</svg>
