<svg xmlns="http://www.w3.org/2000/svg" width="37.084" height="41.111" viewBox="0 0 37.084 41.111">
  <g id="Group_2537" data-name="Group 2537" transform="translate(0 0)">
    <path id="Path_4698" data-name="Path 4698" d="M3302.29,1124.535c-8.164,0-13.77-4.229-17.7-4.229s-12.2,2.262-12.2,20.358,11.114,20.752,15.441,20.752C3308.093,1161.418,3316.748,1124.535,3302.29,1124.535Z" transform="translate(-3272.39 -1120.306)" fill="#efefef"/>
    <path id="Path_4699" data-name="Path 4699" d="M3639.813,1200.874a1.77,1.77,0,1,1,1.771-1.77A1.772,1.772,0,0,1,3639.813,1200.874Zm0-2.36a.59.59,0,1,0,.59.59A.59.59,0,0,0,3639.813,1198.513Z" transform="translate(-3607.699 -1190.941)" fill="#a4afc1"/>
    <path id="Path_4700" data-name="Path 4700" d="M3362.377,1227.828l-5.595,2.36-7.684,3.246-7.683-3.246-5.595-2.36,13.278-5.606Z" transform="translate(-3330.557 -1213.764)" fill="#f3f3f1"/>
    <path id="Path_4701" data-name="Path 4701" d="M3362.377,1320.583l-5.595,2.36-7.684,3.246-7.683-3.246-5.595-2.36,5.595-2.36,7.683,3.246,7.684-3.246Z" transform="translate(-3330.557 -1301.798)" fill="#f3f3f1"/>
    <path id="Path_4702" data-name="Path 4702" d="M3362.377,1377.472l-5.595,2.36-7.684,3.246-7.683-3.246-5.595-2.36,5.595-2.36,7.683,3.246,7.684-3.246Z" transform="translate(-3330.557 -1353.966)" fill="#00aeef"/>
    <path id="Path_4703" data-name="Path 4703" d="M3362.377,1434.361l-13.278,5.606-13.278-5.606,5.595-2.36,7.683,3.246,7.684-3.246Z" transform="translate(-3330.557 -1406.134)" fill="#f3f3f1"/>
    <path id="Path_4704" data-name="Path 4704" d="M3530.927,1314.357l6.357-2.685-1.329-.561-6.356,2.685Z" transform="translate(-3508.254 -1295.277)" fill="#d5dbe1"/>
    <path id="Path_4705" data-name="Path 4705" d="M3361.85,1315.832l-5.594-2.36,4.265-1.8-1.327-.561-5.594,2.361,5.594,2.36,7.684,3.246,1.328-.56Z" transform="translate(-3346.86 -1295.277)" fill="#d5dbe1"/>
    <path id="Path_4706" data-name="Path 4706" d="M3528.167,1378.246l6.354-2.691-1.33-.56-6.353,2.692Z" transform="translate(-3505.723 -1353.859)" fill="aqua"/>
    <path id="Path_4707" data-name="Path 4707" d="M3359.088,1379.9l-5.6-2.355,4.264-1.8-1.328-.559-5.592,2.366,5.6,2.355,7.687,3.238,1.327-.562Z" transform="translate(-3344.326 -1354.026)" fill="aqua"/>
    <path id="Path_4708" data-name="Path 4708" d="M3520.658,1433.468l6.357-2.685-1.329-.561-6.356,2.685Z" transform="translate(-3498.837 -1404.503)" fill="#d5dbe1"/>
    <path id="Path_4709" data-name="Path 4709" d="M3345.986,1432.583l4.265-1.8-1.326-.561-5.594,2.361,13.278,5.606,1.327-.561Z" transform="translate(-3337.444 -1404.503)" fill="#d5dbe1"/>
    <path id="Path_4710" data-name="Path 4710" d="M3349.1,1222.222l13.278,5.606-13.278,5.606-13.278-5.606Z" transform="translate(-3330.557 -1213.764)" fill="#00aeef"/>
    <path id="Path_4711" data-name="Path 4711" d="M3339.317,1224.535a.9.9,0,0,1-.344-.069l-13.278-5.606a.886.886,0,0,1,0-1.631l13.278-5.606a.884.884,0,0,1,.688,0l13.278,5.606a.885.885,0,0,1,0,1.631l-13.278,5.606A.9.9,0,0,1,3339.317,1224.535Zm-11-6.491,11,4.646,11-4.646-11-4.646Z" transform="translate(-3320.776 -1203.98)" fill="#0072bc"/>
    <path id="Path_4712" data-name="Path 4712" d="M3339.317,1318.049a.893.893,0,0,1-.344-.07l-13.278-5.606a.886.886,0,0,1,0-1.631l5.594-2.361.688,1.631-3.661,1.545,11,4.645,11-4.645-3.663-1.546.688-1.631,5.594,2.361a.886.886,0,0,1,0,1.632l-13.278,5.606a.9.9,0,0,1-.345.07Z" transform="translate(-3320.776 -1292.772)" fill="#0072bc"/>
    <path id="Path_4713" data-name="Path 4713" d="M3339.317,1374.938a.9.9,0,0,1-.344-.07l-13.278-5.606a.886.886,0,0,1,0-1.631l5.594-2.36.688,1.631-3.661,1.545,11,4.646,11-4.646-3.663-1.546.688-1.631,5.594,2.361a.886.886,0,0,1,0,1.632l-13.278,5.606a.9.9,0,0,1-.345.07Z" transform="translate(-3320.776 -1344.941)" fill="#0072bc"/>
    <path id="Path_4714" data-name="Path 4714" d="M3339.317,1431.827a.9.9,0,0,1-.344-.07l-13.278-5.606a.885.885,0,0,1,0-1.631l5.594-2.361.688,1.631-3.661,1.545,11,4.645,11-4.645-3.663-1.546.688-1.631,5.594,2.36a.886.886,0,0,1,0,1.632l-13.278,5.606a.9.9,0,0,1-.345.07Z" transform="translate(-3320.776 -1397.109)" fill="#0072bc"/>
  </g>
</svg>
