<svg xmlns="http://www.w3.org/2000/svg" width="50.031" height="47.568" viewBox="0 0 50.031 47.568">
  <g id="Group_2536" data-name="Group 2536" transform="translate(0)">
    <g id="Group_2515" data-name="Group 2515">
      <path id="Path_4678" data-name="Path 4678" d="M6386.9-1260.252c0,10.472-5.146,17.663-5.146,22.709s2.752,15.644,24.775,15.644,25.255-14.257,25.255-19.807c0-25.99-44.885-37.092-44.885-18.546Z" transform="translate(-6381.756 1269.468)" fill="#efefef"/>
    </g>
    <g id="Group_2516" data-name="Group 2516" transform="translate(4.907 1.075)">
      <path id="Path_4679" data-name="Path 4679" d="M6412.538-1258.976a2.218,2.218,0,0,1-2.155-2.271,2.217,2.217,0,0,1,2.155-2.271,2.218,2.218,0,0,1,2.154,2.271A2.218,2.218,0,0,1,6412.538-1258.976Zm0-3.028a.741.741,0,0,0-.719.757.741.741,0,0,0,.719.757.74.74,0,0,0,.718-.757A.741.741,0,0,0,6412.538-1262Z" transform="translate(-6410.383 1263.518)" fill="#a4afc1"/>
    </g>
    <g id="Group_2517" data-name="Group 2517" transform="translate(23.22 6.752)">
      <ellipse id="Ellipse_538" data-name="Ellipse 538" cx="8.977" cy="3.406" rx="8.977" ry="3.406" transform="translate(0 0)" fill="#f3f3f1"/>
    </g>
    <g id="Group_2518" data-name="Group 2518" transform="translate(23.22 10.158)">
      <path id="Path_4680" data-name="Path 4680" d="M6535.186-1213.237c0,1.882-4.019,3.406-8.978,3.406s-8.977-1.525-8.977-3.406v24.223c0,1.882,4.019,3.406,8.977,3.406s8.978-1.525,8.978-3.406Z" transform="translate(-6517.231 1213.237)" fill="#f3f3f1"/>
    </g>
    <g id="Group_2519" data-name="Group 2519" transform="translate(8.857 26.433)">
      <ellipse id="Ellipse_539" data-name="Ellipse 539" cx="8.259" cy="3.406" rx="8.259" ry="3.406" transform="translate(0 0)" fill="#00aeef"/>
    </g>
    <g id="Group_2520" data-name="Group 2520" transform="translate(8.857 29.84)">
      <path id="Path_4681" data-name="Path 4681" d="M6433.428-1096.723c0,1.882,3.7,3.406,8.259,3.406s8.259-1.524,8.259-3.406v-7.57c0,1.882-3.7,3.406-8.259,3.406s-8.259-1.525-8.259-3.406Z" transform="translate(-6433.428 1104.293)" fill="#00aeef"/>
    </g>
    <g id="Group_2521" data-name="Group 2521" transform="translate(23.22 6.752)">
      <path id="Path_4682" data-name="Path 4682" d="M6517.333-1228.2a1.564,1.564,0,0,0,.109.242c.026.044.059.088.089.13a2.237,2.237,0,0,0,.165.217c.037.044.081.086.124.129a2.984,2.984,0,0,0,.222.2c.049.041.1.08.152.12.09.066.184.133.285.2l.171.107c.113.067.233.132.358.2.059.03.115.061.177.089.146.07.3.135.458.2.05.02.1.042.148.062.214.083.438.162.672.238a19.523,19.523,0,0,0,5.746.79c.553,0,1.092-.021,1.616-.057-4.186-.291-7.362-1.679-7.362-3.35s3.176-3.06,7.362-3.349c-.524-.036-1.063-.057-1.616-.057-4.958,0-8.977,1.525-8.977,3.406a1.354,1.354,0,0,0,.055.369c.012.039.033.079.047.118Z" transform="translate(-6517.231 1232.092)" fill="#d5dbe1"/>
    </g>
    <g id="Group_2522" data-name="Group 2522" transform="translate(8.857 26.433)">
      <path id="Path_4683" data-name="Path 4683" d="M6436.66-1119.742c0-1.653,2.855-3.031,6.644-3.34-.523-.042-1.063-.067-1.616-.067-4.562,0-8.259,1.525-8.259,3.406s3.7,3.406,8.259,3.406c.553,0,1.093-.023,1.616-.067C6439.515-1116.711,6436.66-1118.088,6436.66-1119.742Z" transform="translate(-6433.428 1123.148)" fill="aqua"/>
    </g>
    <g id="Group_2523" data-name="Group 2523" transform="translate(8.857 29.84)">
      <path id="Path_4684" data-name="Path 4684" d="M6436.66-1096.723v-4.872c-1.961-.622-3.232-1.6-3.232-2.7v7.57c0,1.882,3.7,3.406,8.259,3.406.553,0,1.093-.022,1.616-.066C6439.515-1093.692,6436.66-1095.07,6436.66-1096.723Z" transform="translate(-6433.428 1104.293)" fill="aqua"/>
    </g>
    <g id="Group_2524" data-name="Group 2524" transform="translate(8.095 7.464)">
      <path id="Path_4685" data-name="Path 4685" d="M6430.509-1219.736l-1.522-1.6,3.591-3.785a1.04,1.04,0,0,1,1.243-.214l2.179,1.149,3.76-3.964,1.523,1.6-4.31,4.542a1.041,1.041,0,0,1-1.243.214l-2.179-1.149Z" transform="translate(-6428.987 1228.153)" fill="#0072bc"/>
    </g>
    <g id="Group_2525" data-name="Group 2525" transform="translate(14.961 7.131)">
      <path id="Path_4686" data-name="Path 4686" d="M6474.791-1223.941h-2.155v-3.785h-3.59V-1230h4.668a1.108,1.108,0,0,1,1.078,1.135Z" transform="translate(-6469.045 1229.997)" fill="#0072bc"/>
    </g>
    <g id="Group_2526" data-name="Group 2526" transform="translate(24.298 29.84)">
      <path id="Path_4687" data-name="Path 4687" d="M6523.517-1104.293h2.154v7.57h-2.154Z" transform="translate(-6523.517 1104.293)" fill="#0072bc"/>
    </g>
    <g id="Group_2527" data-name="Group 2527" transform="translate(22.143 5.686)">
      <path id="Path_4688" data-name="Path 4688" d="M6521-1228.98c-5,0-10.054-1.559-10.054-4.542,0-5.963,20.109-5.963,20.109,0C6531.055-1230.539,6526-1228.98,6521-1228.98Zm0-6.813c-5.13,0-7.9,1.611-7.9,2.271s2.769,2.271,7.9,2.271,7.9-1.611,7.9-2.271S6526.131-1235.793,6521-1235.793Z" transform="translate(-6510.946 1237.995)" fill="#0072bc"/>
    </g>
    <g id="Group_2528" data-name="Group 2528" transform="translate(22.143 16.214)">
      <path id="Path_4689" data-name="Path 4689" d="M6521-1175.173c-5,0-10.054-1.559-10.054-4.542h2.154c0,.66,2.769,2.271,7.9,2.271s7.9-1.611,7.9-2.271h2.155C6531.055-1176.733,6526-1175.173,6521-1175.173Z" transform="translate(-6510.946 1179.715)" fill="#0072bc"/>
    </g>
    <g id="Group_2529" data-name="Group 2529" transform="translate(22.143 22.27)">
      <path id="Path_4690" data-name="Path 4690" d="M6521-1141.652c-5,0-10.054-1.559-10.054-4.542h2.154c0,.66,2.769,2.271,7.9,2.271s7.9-1.611,7.9-2.271h2.155C6531.055-1143.212,6526-1141.652,6521-1141.652Z" transform="translate(-6510.946 1146.194)" fill="#0072bc"/>
    </g>
    <g id="Group_2530" data-name="Group 2530" transform="translate(28.813 28.326)">
      <path id="Path_4691" data-name="Path 4691" d="M6553.248-1108.131a22.7,22.7,0,0,1-3.384-.239l.306-2.247a20.829,20.829,0,0,0,3.078.215c5.13,0,7.9-1.611,7.9-2.271h2.154C6563.3-1109.691,6558.245-1108.131,6553.248-1108.131Z" transform="translate(-6549.864 1112.673)" fill="#0072bc"/>
    </g>
    <g id="Group_2531" data-name="Group 2531" transform="translate(28.813 34.382)">
      <path id="Path_4692" data-name="Path 4692" d="M6553.248-1074.61a22.694,22.694,0,0,1-3.384-.239l.306-2.247a20.846,20.846,0,0,0,3.078.215c5.13,0,7.9-1.611,7.9-2.271h2.154C6563.3-1076.17,6558.245-1074.61,6553.248-1074.61Z" transform="translate(-6549.864 1079.152)" fill="#0072bc"/>
    </g>
    <g id="Group_2532" data-name="Group 2532" transform="translate(40.097 10.158)">
      <path id="Path_4693" data-name="Path 4693" d="M6615.7-1213.237h2.155v24.223H6615.7Z" transform="translate(-6615.7 1213.237)" fill="#0072bc"/>
    </g>
    <g id="Group_2533" data-name="Group 2533" transform="translate(22.143 10.158)">
      <path id="Path_4694" data-name="Path 4694" d="M6510.946-1213.237h2.154v12.112h-2.154Z" transform="translate(-6510.946 1213.237)" fill="#0072bc"/>
    </g>
    <g id="Group_2534" data-name="Group 2534" transform="translate(7.779 25.367)">
      <path id="Path_4695" data-name="Path 4695" d="M6436.479-1120.036c-4.639,0-9.335-1.559-9.335-4.542,0-5.963,18.672-5.963,18.672,0C6445.815-1121.6,6441.119-1120.036,6436.479-1120.036Zm0-6.813c-4.738,0-7.181,1.593-7.181,2.271s2.443,2.271,7.181,2.271,7.182-1.593,7.182-2.271S6441.218-1126.849,6436.479-1126.849Z" transform="translate(-6427.144 1129.051)" fill="#0072bc"/>
    </g>
    <g id="Group_2535" data-name="Group 2535" transform="translate(7.779 37.41)">
      <path id="Path_4696" data-name="Path 4696" d="M6436.479-1057.849c-4.639,0-9.335-1.559-9.335-4.542h2.154c0,.678,2.443,2.271,7.181,2.271s7.182-1.593,7.182-2.271h2.154C6445.815-1059.409,6441.119-1057.849,6436.479-1057.849Z" transform="translate(-6427.144 1062.391)" fill="#0072bc"/>
    </g>
  </g>
</svg>
