<svg xmlns="http://www.w3.org/2000/svg" width="53.312" height="50.914" viewBox="0 0 53.312 50.914">
  <g id="Group_10884" data-name="Group 10884" transform="translate(0 0)">
    <path id="Path_4655" data-name="Path 4655" d="M1438.31,5979.7c0-11.159-5.484-18.822-5.484-24.2s2.932-16.669,26.4-16.669,26.911,15.191,26.911,21.105C1486.139,5987.632,1438.31,5999.462,1438.31,5979.7Z" transform="translate(-1432.826 -5938.832)" fill="#efefef"/>
    <g id="Group_2514" data-name="Group 2514" transform="translate(4.655 1.701)">
      <g id="Group_2513" data-name="Group 2513">
        <path id="Path_4656" data-name="Path 4656" d="M1501.028,5969.4l2.993-.673.319,1.577-2.993.673Z" transform="translate(-1492.421 -5964.299)" fill="#a4afc1"/>
        <path id="Path_4657" data-name="Path 4657" d="M1456.766,5978.837l2.993-.673.319,1.577-2.993.673Z" transform="translate(-1456.766 -5971.804)" fill="#a4afc1"/>
        <path id="Path_4658" data-name="Path 4658" d="M1477.959,5947.466l1.5-.336.639,3.155-1.5.336Z" transform="translate(-1473.838 -5947.13)" fill="#a4afc1"/>
      </g>
      <path id="Path_4659" data-name="Path 4659" d="M1552.545,6166.082a2.733,2.733,0,1,1,2.589-2.729A2.665,2.665,0,0,1,1552.545,6166.082Zm0-3.639a.911.911,0,1,0,.863.91A.888.888,0,0,0,1552.545,6162.443Z" transform="translate(-1531.836 -6116.869)" fill="#a4afc1"/>
    </g>
    <g id="Group_10883" data-name="Group 10883" transform="translate(10.249 10.549)">
      <path id="Path_4660" data-name="Path 4660" d="M1562.052,6011.2a5.025,5.025,0,0,1-1.427-4.111c.088-4.453.043-8.909.023-13.365-.008-2.211-1.167-3.415-3.241-3.417q-11.285-.006-22.565,0c-2.1,0-3.23,1.174-3.24,3.394,0,.207,0,.414,0,.621h2.87v-.9h23.275c0,5.04.01,10-.027,14.957,0,.211-.377.486-.632.607a1.9,1.9,0,0,1-.764.022c-4.326,0-8.653-.01-12.977.019-.319,0-.854.2-.92.426-.556,1.871-1.025,3.771-1.557,5.813H1549c3.776,0,7.554.006,11.33,0,1.277,0,2.071-.543,2.263-1.611A2.463,2.463,0,0,0,1562.052,6011.2Zm-13.878,2.121c-1.355.037-2.711.029-4.066.006-.665-.01-1.081-.365-1.112-1.248h6.246C1549.209,6012.893,1548.838,6013.3,1548.174,6013.321Z" transform="translate(-1522.643 -5990.305)" fill="aqua"/>
      <path id="Path_4661" data-name="Path 4661" d="M1576.7,6098.323l2.79-.106,5.681.749s-.2,1.6-1.623,1.6-6.391.481-6.391.481Z" transform="translate(-1558.971 -6076.1)" fill="#00aeef"/>
      <path id="Path_4662" data-name="Path 4662" d="M1501.326,6020.354h8.136c3.777,0,7.554.005,11.331,0,1.278,0,2.071-.544,2.264-1.611a2.467,2.467,0,0,0-.545-2.451,5.022,5.022,0,0,1-1.427-4.112c.086-4.453.043-8.909.024-13.363-.009-2.212-1.168-3.415-3.243-3.417q-11.282-.008-22.565,0c-2.1,0-3.23,1.175-3.24,3.394-.015,3.537-.005,7.073,0,10.61,0,.263.033.526.052.829h2.818V5998.51h23.275c0,5.04.008,10-.028,14.959,0,.21-.377.485-.632.605a1.92,1.92,0,0,1-.766.022c-4.326,0-8.652-.009-12.977.019-.319,0-.852.2-.92.427C1502.328,6016.414,1501.86,6018.313,1501.326,6020.354Zm-1.329-7.818a9.517,9.517,0,0,0-1.076-.134c-3.712-.009-7.425-.023-11.137,0-1.49.01-2.183.958-1.848,2.486.45,2.05.932,4.093,1.422,6.133a1.856,1.856,0,0,0,2.151,1.712q4.261.008,8.522,0c.534,0,1.141-.031,1.144.73s-.614.725-1.142.724q-4.987,0-9.975,0a3.8,3.8,0,0,0-1.142.144,2.129,2.129,0,0,0,.484,4.1,1.962,1.962,0,0,0,2.053-1.5,9.672,9.672,0,0,0,.176-1.278h5.021c.053,1.8.729,2.733,1.972,2.78,1.288.048,1.988-.862,2.135-2.791a2.195,2.195,0,0,0,1.718-1.834,1.96,1.96,0,0,0-.849-2.116c-.633-.363-.546-.757-.387-1.329.67-2.41,1.305-4.832,1.952-7.249.489-1.826.488-1.826,2.31-1.887.129,0,.294.044.38-.021a7.654,7.654,0,0,0,.648-.617c-.226-.23-.44-.642-.68-.659-1.023-.074-2.054-.032-3.105-.032Z" transform="translate(-1485.537 -5994.35)" fill="#fff"/>
      <path id="Path_4663" data-name="Path 4663" d="M1528.319,6020.354c.534-2.041,1-3.94,1.557-5.812.068-.227.6-.424.92-.427,4.326-.027,8.651-.019,12.977-.019a1.92,1.92,0,0,0,.766-.022c.254-.12.63-.4.631-.605.036-4.959.028-9.919.028-14.959h-23.275v11.719H1519.1c-.02-.3-.052-.565-.053-.829,0-3.537-.013-7.073,0-10.61.009-2.219,1.137-3.393,3.24-3.394q11.283-.007,22.565,0c2.075,0,3.233,1.2,3.243,3.417.019,4.455.063,8.911-.023,13.363a5.022,5.022,0,0,0,1.427,4.112,2.467,2.467,0,0,1,.545,2.451c-.193,1.067-.986,1.608-2.264,1.611-3.777.009-7.554,0-11.331,0h-8.136Zm2.13-3.187c.032.884.447,1.238,1.113,1.249,1.355.022,2.711.03,4.065-.007.664-.018,1.035-.429,1.068-1.242Z" transform="translate(-1512.53 -5994.35)" fill="#0072bc"/>
      <path id="Path_4664" data-name="Path 4664" d="M1500,6068.81l.747-2.625c1.052,0,2.082-.042,3.105.032.24.017.454.429.68.659a7.654,7.654,0,0,1-.648.617c-.086.066-.251.018-.38.021-1.822.061-1.821.061-2.31,1.887-.647,2.417-1.282,4.839-1.952,7.249-.159.572-.245.965.387,1.329a1.96,1.96,0,0,1,.849,2.116,2.195,2.195,0,0,1-1.718,1.834c-.148,1.928-.848,2.839-2.135,2.791-1.243-.046-1.919-.983-1.972-2.78h-5.021a9.672,9.672,0,0,1-.176,1.278,1.962,1.962,0,0,1-2.053,1.5,2.129,2.129,0,0,1-.484-4.1,3.8,3.8,0,0,1,1.142-.144q4.987-.016,9.975,0c.528,0,1.146.049,1.142-.724s-.61-.731-1.144-.73q-4.261.007-8.522,0a1.856,1.856,0,0,1-2.151-1.712c-.49-2.04-.972-4.083-1.422-6.133-.335-1.527.358-2.476,1.848-2.486,3.712-.025,7.425-.011,11.137,0A9.517,9.517,0,0,1,1500,6068.81Zm-3.681,1.4c-2.682-.3-2.571-.146-2.247,1.435C1496.106,6071.941,1496.309,6071.812,1496.316,6070.206Zm-6.2-.051c.166,1.75.444,1.9,2.39,1.425v-1.425Zm3.874,4.438c1.57.245,1.648.179,1.669-1.347h-1.669Zm3.622-2.985c1.387.28,1.709.159,1.788-.8a.882.882,0,0,0-.511-.677C1497.887,6069.924,1497.757,6070.1,1497.616,6071.609Zm-6.82,1.612c.019,1.561.184,1.684,1.722,1.339v-1.339Zm-2.168-3.258a3.9,3.9,0,0,0-1.338.379,1.216,1.216,0,0,0,.121,1.06,5.181,5.181,0,0,0,1.573.376Zm8.311,4.611c1.521.292,1.717.125,1.656-1.371h-1.349c-.073.249-.148.466-.2.69C1497,6074.086,1496.983,6074.286,1496.939,6074.573Zm-9.023-1.312c.005,1.469.189,1.624,1.541,1.3C1489.331,6073.046,1489.306,6073.024,1487.916,6073.261Zm8.414,4.173c1.318.221,1.408.144,1.546-1.26h-1.3Zm-6.34.021c-.057-1.431-.153-1.5-1.464-1.19C1488.58,6077.2,1488.864,6077.839,1489.99,6077.454Zm2.569.017v-1.283h-1.213C1491.4,6076.995,1491.35,6077.827,1492.56,6077.471Zm1.448-1.286v1.291c1.248.344.94-.646,1.145-1.291Zm-6.542,7.369c.343-.406.713-.66.687-.855-.038-.283-.361-.524-.563-.784-.226.2-.616.381-.635.6C1486.931,6082.785,1487.217,6083.084,1487.466,6083.554Zm9.224.011c.317-.428.662-.7.628-.9-.047-.279-.374-.506-.581-.755-.214.21-.588.412-.6.633C1496.125,6082.815,1496.42,6083.1,1496.69,6083.565Z" transform="translate(-1485.537 -6050.623)" fill="#0072bc"/>
      <path id="Path_4665" data-name="Path 4665" d="M1577.689,6101.639h6.246c-.033.813-.4,1.224-1.068,1.242-1.354.037-2.71.029-4.065.007C1578.135,6102.877,1577.721,6102.523,1577.689,6101.639Z" transform="translate(-1559.771 -6078.821)" fill="aqua"/>
      <path id="Path_4666" data-name="Path 4666" d="M1530.974,6085.378c-.006,1.606-.209,1.736-2.247,1.435C1528.4,6085.233,1528.292,6085.083,1530.974,6085.378Z" transform="translate(-1520.196 -6065.795)" fill="#fff"/>
      <path id="Path_4667" data-name="Path 4667" d="M1509.108,6085.608h2.39v1.425C1509.552,6087.511,1509.273,6087.358,1509.108,6085.608Z" transform="translate(-1504.525 -6066.076)" fill="#fff"/>
      <path id="Path_4668" data-name="Path 4668" d="M1529.03,6102.038v-1.347h1.669C1530.678,6102.217,1530.6,6102.283,1529.03,6102.038Z" transform="translate(-1520.573 -6078.067)" fill="#fff"/>
      <path id="Path_4669" data-name="Path 4669" d="M1547.657,6086.692c.141-1.5.271-1.685,1.277-1.479a.881.881,0,0,1,.511.676C1549.366,6086.851,1549.044,6086.973,1547.657,6086.692Z" transform="translate(-1535.578 -6065.707)" fill="#fff"/>
      <path id="Path_4670" data-name="Path 4670" d="M1512.584,6100.564h1.722v1.339C1512.768,6102.248,1512.6,6102.125,1512.584,6100.564Z" transform="translate(-1507.325 -6077.966)" fill="#fff"/>
      <path id="Path_4671" data-name="Path 4671" d="M1495.581,6084.666l.356,1.816a5.181,5.181,0,0,1-1.573-.376,1.216,1.216,0,0,1-.121-1.06A3.9,3.9,0,0,1,1495.581,6084.666Z" transform="translate(-1492.491 -6065.327)" fill="#fff"/>
      <path id="Path_4672" data-name="Path 4672" d="M1544.174,6101.845c.044-.288.062-.488.107-.681.052-.224.127-.441.2-.69h1.349C1545.891,6101.97,1545.695,6102.137,1544.174,6101.845Z" transform="translate(-1532.773 -6077.895)" fill="#fff"/>
      <path id="Path_4673" data-name="Path 4673" d="M1497.771,6100.331c1.39-.236,1.415-.215,1.541,1.3C1497.96,6101.955,1497.776,6101.8,1497.771,6100.331Z" transform="translate(-1495.392 -6077.693)" fill="#fff"/>
      <path id="Path_4674" data-name="Path 4674" d="M1541.043,6116.234l.25-1.26h1.3C1542.451,6116.378,1542.361,6116.455,1541.043,6116.234Z" transform="translate(-1530.25 -6089.423)" fill="#fff"/>
      <path id="Path_4675" data-name="Path 4675" d="M1502.37,6116.015c-1.127.385-1.411-.253-1.465-1.19C1502.217,6114.511,1502.312,6114.585,1502.37,6116.015Z" transform="translate(-1497.917 -6089.184)" fill="#fff"/>
      <path id="Path_4676" data-name="Path 4676" d="M1516.625,6116.326c-1.209.356-1.156-.477-1.213-1.283h1.213Z" transform="translate(-1509.603 -6089.478)" fill="#fff"/>
      <path id="Path_4677" data-name="Path 4677" d="M1529.1,6115.029h1.145c-.205.645.1,1.634-1.145,1.291Z" transform="translate(-1520.629 -6089.467)" fill="#fff"/>
    </g>
  </g>
</svg>
