<svg xmlns="http://www.w3.org/2000/svg" width="52.349" height="49.996" viewBox="0 0 52.349 49.996">
  <g id="Group_2491" data-name="Group 2491" transform="translate(0)">
    <path id="Path_4591" data-name="Path 4591" d="M1832.386,5829.438c0-10.957-5.385-18.481-5.385-23.761s2.88-16.369,25.924-16.369,26.426,14.917,26.426,20.725C1879.352,5837.228,1832.386,5848.843,1832.386,5829.438Z" transform="translate(-1827.001 -5789.309)" fill="#efefef"/>
    <g id="Group_2488" data-name="Group 2488" transform="translate(4.571 1.67)">
      <g id="Group_2487" data-name="Group 2487" transform="translate(0 0)">
        <path id="Path_4592" data-name="Path 4592" d="M1950.231,5843.981l2.939-.661.314,1.549-2.939.661Z" transform="translate(-1941.78 -5838.974)" fill="#a4afc1"/>
        <path id="Path_4593" data-name="Path 4593" d="M1870.256,5861.037l2.939-.661.314,1.549-2.939.661Z" transform="translate(-1870.256 -5854.13)" fill="#a4afc1"/>
        <path id="Path_4594" data-name="Path 4594" d="M1908.55,5804.631l1.469-.33.627,3.1-1.469.331Z" transform="translate(-1904.504 -5804.301)" fill="#a4afc1"/>
      </g>
      <path id="Path_4595" data-name="Path 4595" d="M2041.179,6195.411a2.684,2.684,0,1,1,2.542-2.681A2.618,2.618,0,0,1,2041.179,6195.411Zm0-3.574a.895.895,0,1,0,.848.893A.873.873,0,0,0,2041.179,6191.837Z" transform="translate(-2020.843 -6147.085)" fill="#a4afc1"/>
    </g>
    <path id="Path_4596" data-name="Path 4596" d="M2174,5891.9a5.662,5.662,0,0,1,3.9-.4,2.316,2.316,0,0,1,1.894,1.89,3.33,3.33,0,0,0,1.29,2.117,6.319,6.319,0,0,1,2.292,4.671c.15,2.1.3,4.2.477,6.3.2,2.373.426,4.761.627,7.285a3.468,3.468,0,0,1-1.373,3.107,3.934,3.934,0,0,1-5.18.2" transform="translate(-2137.331 -5879.953)" fill="none" stroke="aqua" stroke-miterlimit="10" stroke-width="2"/>
    <path id="Path_4597" data-name="Path 4597" d="M1884.338,6055.63c-.124,0-.51.71-.579.85a5.281,5.281,0,0,1-4.313,3.391,4.09,4.09,0,0,1-3.257-1.3c-.088.144-.167.271-.244.4-.761,1.272-1.477,2.573-2.293,3.808a6.455,6.455,0,0,1-3.578,2.757c-1.964.586-5.162-1.289-4.924-4" transform="translate(-1861.106 -6025.967)" fill="none" stroke="aqua" stroke-miterlimit="10" stroke-width="2"/>
    <path id="Path_4598" data-name="Path 4598" d="M1882.138,5908.764c-1.135,0-2.281-.011-3.427.015-.124,0-.289.188-.357.328a4.981,4.981,0,0,1-4.776,3.009,4.889,4.889,0,0,1-3.257-1.3c-.088.144-.167.271-.244.4-.761,1.272-1.477,2.574-2.294,3.809a6.451,6.451,0,0,1-3.578,2.756c-1.964.587-5.162-1.288-4.925-4,.162-1.854.326-3.706.477-5.561.218-2.673.446-5.345.629-8.021a6.88,6.88,0,0,1,2.879-5.273,1.338,1.338,0,0,0,.4-.566,5.876,5.876,0,0,0,.315-1.076,2.271,2.271,0,0,1,1.769-1.809,5.628,5.628,0,0,1,4.02.373,1.927,1.927,0,0,1,1.14,1.525c.057.355.128.709.187,1.063a.927.927,0,0,0,1.061.912h16.438a.888.888,0,0,0,.932-.8c.073-.4.162-.79.223-1.188a1.9,1.9,0,0,1,1.142-1.521,5.662,5.662,0,0,1,3.9-.4,2.316,2.316,0,0,1,1.894,1.89,3.329,3.329,0,0,0,1.29,2.117,6.319,6.319,0,0,1,2.292,4.672c.15,2.1.305,4.2.478,6.3.2,2.43.433,4.855.626,7.284a3.467,3.467,0,0,1-1.372,3.107,3.934,3.934,0,0,1-5.181.2,7.1,7.1,0,0,1-2.056-2.126c-.738-1.2-1.447-2.421-2.169-3.632l-.241-.407A5.131,5.131,0,0,1,1882.138,5908.764Z" transform="translate(-1855.857 -5879.901)" fill="none" stroke="#0072bc" stroke-miterlimit="10" stroke-width="3"/>
    <path id="Path_4599" data-name="Path 4599" d="M1902.956,5943.353" transform="translate(-1894.93 -5926.195)" fill="none" stroke="aqua" stroke-miterlimit="10" stroke-width="20"/>
    <path id="Path_4600" data-name="Path 4600" d="M1972.885,6006.538a2.359,2.359,0,1,0,2.27,2.381A2.311,2.311,0,0,0,1972.885,6006.538Z" transform="translate(-1954.733 -5981.588)" fill="#0072bc"/>
    <path id="Path_4601" data-name="Path 4601" d="M2092.239,6006.531a2.286,2.286,0,0,1,2.248,2.33,2.255,2.255,0,1,1-4.5.024A2.286,2.286,0,0,1,2092.239,6006.531Z" transform="translate(-2061.47 -5981.58)" fill="#0072bc"/>
    <g id="Group_2489" data-name="Group 2489" transform="translate(7.471 16.61)">
      <path id="Path_4602" data-name="Path 4602" d="M1903.955,5955.3a3.965,3.965,0,1,0-3.748-3.928A3.846,3.846,0,0,0,1903.955,5955.3Z" transform="translate(-1899.942 -5946.385)" fill="aqua"/>
      <path id="Path_4603" data-name="Path 4603" d="M1901.462,5946.356a3.966,3.966,0,1,0-3.762-3.918A3.845,3.845,0,0,0,1901.462,5946.356Z" transform="translate(-1897.7 -5938.435)" fill="#00aeef"/>
      <path id="Path_4604" data-name="Path 4604" d="M1909.669,5967.55v-1.843c.382,0,.743,0,1.1,0a.314.314,0,0,1,.188.093c.266.259.526.525.838.84-.307.3-.575.572-.851.832a.311.311,0,0,1-.2.071C1910.4,5967.553,1910.046,5967.55,1909.669,5967.55Z" transform="translate(-1908.404 -5962.668)" fill="#fff"/>
      <path id="Path_4605" data-name="Path 4605" d="M1937.228,5967.55v-1.843c-.382,0-.743,0-1.1,0a.312.312,0,0,0-.188.093c-.266.259-.526.525-.838.84.306.3.575.572.851.832a.311.311,0,0,0,.2.071C1936.5,5967.553,1936.852,5967.55,1937.228,5967.55Z" transform="translate(-1931.147 -5962.668)" fill="#fff"/>
      <path id="Path_4606" data-name="Path 4606" d="M1924.226,5951.718h1.749c0,.4,0,.782,0,1.163a.343.343,0,0,1-.088.2c-.246.281-.5.555-.8.884-.286-.324-.542-.606-.79-.9a.351.351,0,0,1-.067-.207C1924.223,5952.487,1924.226,5952.115,1924.226,5951.718Z" transform="translate(-1921.422 -5950.239)" fill="#fff"/>
      <path id="Path_4607" data-name="Path 4607" d="M1924.226,5978.43h1.749c0-.4,0-.783,0-1.163a.347.347,0,0,0-.088-.2c-.246-.281-.5-.554-.8-.883-.286.323-.542.606-.79.9a.353.353,0,0,0-.067.207C1924.223,5977.661,1924.226,5978.032,1924.226,5978.43Z" transform="translate(-1921.422 -5971.981)" fill="aqua"/>
    </g>
    <g id="Group_2490" data-name="Group 2490" transform="translate(34.211 16.611)">
      <path id="Path_4608" data-name="Path 4608" d="M2158.067,5955.3a3.965,3.965,0,1,0-3.748-3.928A3.846,3.846,0,0,0,2158.067,5955.3Z" transform="translate(-2153.941 -5946.385)" fill="aqua"/>
      <path id="Path_4609" data-name="Path 4609" d="M2154.489,5946.357a3.965,3.965,0,1,0-3.748-3.928A3.846,3.846,0,0,0,2154.489,5946.357Z" transform="translate(-2150.741 -5938.438)" fill="#00aeef"/>
      <path id="Path_4610" data-name="Path 4610" d="M2178.817,5985.027a1,1,0,1,1-.992-1.053A1.033,1.033,0,0,1,2178.817,5985.027Z" transform="translate(-2174.063 -5978.902)" fill="#fff"/>
      <path id="Path_4611" data-name="Path 4611" d="M2177.821,5944.869a1.055,1.055,0,1,1-1,1.038A1.029,1.029,0,0,1,2177.821,5944.869Z" transform="translate(-2174.061 -5944.152)" fill="aqua"/>
      <path id="Path_4612" data-name="Path 4612" d="M2158.905,5964.532a1.055,1.055,0,1,1-1.006,1.036A1.03,1.03,0,0,1,2158.905,5964.532Z" transform="translate(-2157.142 -5961.625)" fill="#fff"/>
      <path id="Path_4613" data-name="Path 4613" d="M2196.773,5964.413a1.054,1.054,0,1,1-1.01,1.032A1.03,1.03,0,0,1,2196.773,5964.413Z" transform="translate(-2191.006 -5961.521)" fill="#fff"/>
    </g>
  </g>
</svg>
