<svg xmlns="http://www.w3.org/2000/svg" width="55.72" height="49.126" viewBox="0 0 55.72 49.126">
  <g id="Group_2486" data-name="Group 2486" transform="translate(-1.399 -0.425)">
    <path id="Path_4574" data-name="Path 4574" d="M5.7,37.738a31.246,31.246,0,0,0-.913-7.285,49.6,49.6,0,0,0-1.96-6.1C2.115,22.5,1.409,20.822.88,19.3A13.024,13.024,0,0,1,0,15.168,12.2,12.2,0,0,1,.842,10.7,12.593,12.593,0,0,1,4.476,5.713a21.2,21.2,0,0,1,8.079-4.046A52.15,52.15,0,0,1,26.755,0,41.383,41.383,0,0,1,41.111,2.225a22.274,22.274,0,0,1,8.447,5.321A18.482,18.482,0,0,1,53.6,13.922a17.249,17.249,0,0,1,1.117,5.334c.231,6.425-2.662,11.972-7.164,16.391a41.772,41.772,0,0,1-16.866,9.62c-6.212,1.89-12.455,2.361-17.154,1.175S5.714,42.429,5.7,37.738Z" transform="translate(1.399 2.461)" fill="#efefef"/>
    <path id="Path_4575" data-name="Path 4575" d="M4391.474,1140.623a2.511,2.511,0,1,1,2.362-2.507A2.441,2.441,0,0,1,4391.474,1140.623Zm0-3.343a.837.837,0,1,0,.788.836A.814.814,0,0,0,4391.474,1137.28Z" transform="translate(-4338.23 -1135.184)" fill="#a4afc1"/>
    <path id="Path_4576" data-name="Path 4576" d="M4097.121,1227.826H4074.2a1.583,1.583,0,0,1-1.534-1.628v-34.348a1.583,1.583,0,0,1,1.534-1.628h22.918a1.583,1.583,0,0,1,1.534,1.628V1226.2a1.581,1.581,0,0,1-1.532,1.63Z" transform="translate(-4056.831 -1183.381)" fill="#f3f3f1"/>
    <path id="Path_4577" data-name="Path 4577" d="M4101.111,1232.889H4106v5.186h-4.888Z" transform="translate(-4081.009 -1219.47)" fill="#00aeef"/>
    <path id="Path_4578" data-name="Path 4578" d="M4101.111,1332.445H4106v5.187h-4.888Z" transform="translate(-4081.009 -1308.653)" fill="#00aeef"/>
    <path id="Path_4579" data-name="Path 4579" d="M4101.111,1432H4106v5.187h-4.888Z" transform="translate(-4081.009 -1397.836)" fill="#00aeef"/>
    <path id="Path_4580" data-name="Path 4580" d="M4076.815,1223.565h-2.793a1.409,1.409,0,0,1-1.354-1.437V1191.66a1.408,1.408,0,0,1,1.354-1.437h2.793a1.408,1.408,0,0,0-1.355,1.437v30.467A1.409,1.409,0,0,0,4076.815,1223.565Z" transform="translate(-4055.358 -1181.25)" fill="#d5dbe1"/>
    <path id="Path_4581" data-name="Path 4581" d="M4101.111,1232.889h2.095v5.186h-2.095Z" transform="translate(-4081.009 -1219.47)" fill="aqua"/>
    <path id="Path_4582" data-name="Path 4582" d="M4101.111,1332.445h2.095v5.187h-2.095Z" transform="translate(-4081.009 -1308.653)" fill="aqua"/>
    <path id="Path_4583" data-name="Path 4583" d="M4101.111,1432h2.095v5.187h-2.095Z" transform="translate(-4081.009 -1397.836)" fill="aqua"/>
    <path id="Path_4584" data-name="Path 4584" d="M4084.729,1215.12h-20.319a2.487,2.487,0,0,1-2.409-2.556v-30.452a2.487,2.487,0,0,1,2.409-2.556h20.321a2.487,2.487,0,0,1,2.408,2.556v30.453A2.487,2.487,0,0,1,4084.729,1215.12Zm-20.319-33.342a.325.325,0,0,0-.314.333v30.453a.325.325,0,0,0,.314.333h20.321a.325.325,0,0,0,.314-.333v-30.453a.325.325,0,0,0-.314-.333Z" transform="translate(-4045.739 -1171.694)" fill="#0072bc"/>
    <path id="Path_4585" data-name="Path 4585" d="M4096.379,1229.632h-4.888a1.082,1.082,0,0,1-1.047-1.111v-5.186a1.082,1.082,0,0,1,1.047-1.111h4.888a1.081,1.081,0,0,1,1.047,1.111v5.186A1.081,1.081,0,0,1,4096.379,1229.632Zm-3.84-2.223h2.793v-2.964h-2.793Z" transform="translate(-4071.389 -1209.916)" fill="#0072bc"/>
    <path id="Path_4586" data-name="Path 4586" d="M4096.379,1329.187h-4.888a1.082,1.082,0,0,1-1.047-1.111v-5.187a1.081,1.081,0,0,1,1.047-1.111h4.888a1.081,1.081,0,0,1,1.047,1.111v5.187A1.081,1.081,0,0,1,4096.379,1329.187Zm-3.84-2.223h2.793V1324h-2.793Z" transform="translate(-4071.389 -1299.098)" fill="#0072bc"/>
    <path id="Path_4587" data-name="Path 4587" d="M4096.379,1428.743h-4.888a1.082,1.082,0,0,1-1.047-1.111v-5.187a1.082,1.082,0,0,1,1.047-1.111h4.888a1.081,1.081,0,0,1,1.047,1.111v5.187A1.081,1.081,0,0,1,4096.379,1428.743Zm-3.84-2.223h2.793v-2.964h-2.793Z" transform="translate(-4071.389 -1388.281)" fill="#0072bc"/>
    <path id="Path_4588" data-name="Path 4588" d="M4186.444,1250.667h7.681v2.223h-7.681Z" transform="translate(-4157.963 -1235.396)" fill="#0072bc"/>
    <path id="Path_4589" data-name="Path 4589" d="M4186.444,1350.223h7.681v2.223h-7.681Z" transform="translate(-4157.963 -1324.579)" fill="#0072bc"/>
    <path id="Path_4590" data-name="Path 4590" d="M4186.444,1449.778h7.681V1452h-7.681Z" transform="translate(-4157.963 -1413.761)" fill="#0072bc"/>
  </g>
</svg>
