<svg xmlns="http://www.w3.org/2000/svg" width="40.427" height="36.802" viewBox="0 0 40.427 36.802">
  <g id="Group_2540" data-name="Group 2540" transform="translate(0 0)">
    <path id="Path_4736" data-name="Path 4736" d="M-906.6-365.017c0,8.028,4.158,13.54,4.158,17.409s-2.224,11.992-20.019,11.992S-942.87-346.546-942.87-350.8c0-19.924,36.268-28.434,36.268-14.217Z" transform="translate(942.87 372.418)" fill="#efefef"/>
    <path id="Path_4737" data-name="Path 4737" d="M-845.726-370.1a1.743,1.743,0,0,1-1.741-1.741,1.743,1.743,0,0,1,1.741-1.741,1.743,1.743,0,0,1,1.741,1.741A1.743,1.743,0,0,1-845.726-370.1Zm0-2.321a.581.581,0,0,0-.58.58.581.581,0,0,0,.58.58.581.581,0,0,0,.58-.58A.581.581,0,0,0-845.726-372.424Z" transform="translate(868.842 373.584)" fill="#a4afc1"/>
    <circle id="Ellipse_542" data-name="Ellipse 542" cx="8.704" cy="8.704" r="8.704" transform="translate(11.51 9.865)" fill="#f3f3f1"/>
    <circle id="Ellipse_543" data-name="Ellipse 543" cx="2.031" cy="2.031" r="2.031" transform="translate(29.204 5.515)" fill="#00aeef"/>
    <circle id="Ellipse_544" data-name="Ellipse 544" cx="2.031" cy="2.031" r="2.031" transform="translate(7.153 27.562)" fill="#00aeef"/>
    <circle id="Ellipse_545" data-name="Ellipse 545" cx="2.031" cy="2.031" r="2.031" transform="translate(29.202 27.564)" fill="#00aeef"/>
    <circle id="Ellipse_546" data-name="Ellipse 546" cx="2.031" cy="2.031" r="2.031" transform="translate(7.155 5.513)" fill="#00aeef"/>
    <path id="Path_4738" data-name="Path 4738" d="M-809.291-345.5a2.032,2.032,0,0,1,0-2.872c.04-.041.087-.069.13-.107a2.023,2.023,0,0,0-2.741.107,2.032,2.032,0,0,0,0,2.872,2.024,2.024,0,0,0,2.741.107C-809.2-345.428-809.251-345.458-809.291-345.5Z" transform="translate(841.707 354.478)" fill="#00aeef"/>
    <path id="Path_4739" data-name="Path 4739" d="M-907.714-247.076a2.032,2.032,0,0,1,0-2.872c.04-.041.087-.07.13-.107a2.023,2.023,0,0,0-2.741.107,2.032,2.032,0,0,0,0,2.872,2.024,2.024,0,0,0,2.741.107C-907.627-247.005-907.673-247.035-907.714-247.076Z" transform="translate(918.078 278.106)" fill="#00aeef"/>
    <path id="Path_4740" data-name="Path 4740" d="M-809.291-247.076a2.032,2.032,0,0,1,0-2.872c.04-.041.087-.07.13-.107a2.023,2.023,0,0,0-2.741.107,2.032,2.032,0,0,0,0,2.872,2.024,2.024,0,0,0,2.741.107C-809.2-247.005-809.251-247.035-809.291-247.076Z" transform="translate(841.707 278.106)" fill="#00aeef"/>
    <path id="Path_4741" data-name="Path 4741" d="M-907.714-345.5a2.032,2.032,0,0,1,0-2.872c.04-.041.087-.069.13-.107a2.024,2.024,0,0,0-2.741.108,2.032,2.032,0,0,0,0,2.872,2.024,2.024,0,0,0,2.741.107C-907.627-345.425-907.673-345.455-907.714-345.5Z" transform="translate(918.078 354.475)" fill="#00aeef"/>
    <path id="Path_4742" data-name="Path 4742" d="M-888.887-320.849a8.7,8.7,0,0,1,7.4-8.6,8.808,8.808,0,0,0-1.306-.108,8.7,8.7,0,0,0-8.7,8.7,8.7,8.7,0,0,0,8.7,8.7,8.808,8.808,0,0,0,1.306-.108A8.7,8.7,0,0,1-888.887-320.849Z" transform="translate(903.008 339.418)" fill="#d5dbe1"/>
    <path id="Path_4743" data-name="Path 4743" d="M-885.808-314.288a9.586,9.586,0,0,1-9.575-9.575,9.586,9.586,0,0,1,9.575-9.575,9.586,9.586,0,0,1,9.575,9.575A9.586,9.586,0,0,1-885.808-314.288Zm0-17.409a7.843,7.843,0,0,0-7.834,7.834,7.843,7.843,0,0,0,7.834,7.834,7.843,7.843,0,0,0,7.834-7.834A7.843,7.843,0,0,0-885.808-331.7Z" transform="translate(906.022 342.432)" fill="#0072bc"/>
    <path id="Path_4744" data-name="Path 4744" d="M-870.08-314.288c-2.87,0-5.033-4.117-5.033-9.575s2.163-9.575,5.033-9.575,5.033,4.117,5.033,9.575S-867.21-314.288-870.08-314.288Zm0-17.409c-1.557,0-3.292,3.217-3.292,7.834s1.735,7.834,3.292,7.834,3.293-3.217,3.293-7.834S-868.522-331.7-870.08-331.7Z" transform="translate(890.294 342.432)" fill="#0072bc"/>
    <path id="Path_4745" data-name="Path 4745" d="M-879.349-309.929a15.208,15.208,0,0,1-7.71-1.87l.911-1.482a13.46,13.46,0,0,0,6.8,1.611,13.441,13.441,0,0,0,6.8-1.612l.911,1.482A15.188,15.188,0,0,1-879.349-309.929Z" transform="translate(899.563 326.792)" fill="#0072bc"/>
    <path id="Path_4746" data-name="Path 4746" d="M-872.548-279.419a13.442,13.442,0,0,0-6.8-1.612,13.441,13.441,0,0,0-6.8,1.612l-.911-1.482a15.2,15.2,0,0,1,7.71-1.87,15.2,15.2,0,0,1,7.71,1.87Z" transform="translate(899.559 303.117)" fill="#0072bc"/>
    <path id="Path_4747" data-name="Path 4747" d="M-813.482-346.963a2.882,2.882,0,0,1-2.052-.85,2.9,2.9,0,0,1,0-4.1,2.969,2.969,0,0,1,4.1,0,2.9,2.9,0,0,1,0,4.1A2.878,2.878,0,0,1-813.482-346.963Zm0-4.062a1.153,1.153,0,0,0-.82.34,1.162,1.162,0,0,0,0,1.641,1.186,1.186,0,0,0,1.641,0,1.161,1.161,0,0,0,0-1.641,1.153,1.153,0,0,0-.821-.34Z" transform="translate(844.721 357.409)" fill="#0072bc"/>
    <path id="Path_4748" data-name="Path 4748" d="M-827.959-332.111l3.238-3.238,1.231,1.231-3.238,3.238Z" transform="translate(853.704 343.915)" fill="#0072bc"/>
    <path id="Path_4749" data-name="Path 4749" d="M-898.2-262.563l3.435-3.435,1.231,1.231-3.435,3.435Z" transform="translate(908.209 290.102)" fill="#0072bc"/>
    <path id="Path_4750" data-name="Path 4750" d="M-911.9-248.54a2.883,2.883,0,0,1-2.052-.85,2.9,2.9,0,0,1,0-4.1,2.969,2.969,0,0,1,4.1,0,2.9,2.9,0,0,1,0,4.1A2.878,2.878,0,0,1-911.9-248.54Zm0-4.062a1.153,1.153,0,0,0-.821.34,1.162,1.162,0,0,0,0,1.641,1.186,1.186,0,0,0,1.641,0,1.162,1.162,0,0,0,0-1.641,1.153,1.153,0,0,0-.82-.34Z" transform="translate(921.093 281.037)" fill="#0072bc"/>
    <path id="Path_4751" data-name="Path 4751" d="M-813.482-248.54a2.883,2.883,0,0,1-2.052-.85,2.9,2.9,0,0,1,0-4.1,2.969,2.969,0,0,1,4.1,0,2.9,2.9,0,0,1,0,4.1A2.878,2.878,0,0,1-813.482-248.54Zm0-4.062a1.153,1.153,0,0,0-.82.34,1.162,1.162,0,0,0,0,1.641,1.186,1.186,0,0,0,1.641,0,1.161,1.161,0,0,0,0-1.641,1.153,1.153,0,0,0-.821-.34Z" transform="translate(844.721 281.037)" fill="#0072bc"/>
    <path id="Path_4752" data-name="Path 4752" d="M-827.966-264.763l1.231-1.231,3.238,3.238-1.231,1.231Z" transform="translate(853.71 290.099)" fill="#0072bc"/>
    <path id="Path_4753" data-name="Path 4753" d="M-898.2-335.005l1.231-1.231,3.435,3.435-1.231,1.231Z" transform="translate(908.205 344.604)" fill="#0072bc"/>
    <path id="Path_4754" data-name="Path 4754" d="M-911.9-346.963a2.883,2.883,0,0,1-2.052-.85,2.9,2.9,0,0,1,0-4.1,2.969,2.969,0,0,1,4.1,0,2.9,2.9,0,0,1,0,4.1A2.878,2.878,0,0,1-911.9-346.963Zm0-4.062a1.153,1.153,0,0,0-.821.34,1.162,1.162,0,0,0,0,1.641,1.186,1.186,0,0,0,1.641,0,1.162,1.162,0,0,0,0-1.641,1.153,1.153,0,0,0-.82-.34Z" transform="translate(921.093 357.409)" fill="#0072bc"/>
  </g>
</svg>
