<svg xmlns="http://www.w3.org/2000/svg" width="43.923" height="50.395" viewBox="0 0 43.923 50.395">
  <g id="Group_4808" data-name="Group 4808" transform="translate(0)">
    <g id="Group_2492" data-name="Group 2492" transform="translate(0.398)">
      <path id="Path_4614" data-name="Path 4614" d="M-334.057,105.7c-9.494,0-16.014,5.184-20.589,5.184s-14.183-2.772-14.183-24.955,12.926-25.44,17.958-25.44C-327.308,60.488-317.242,105.7-334.057,105.7Z" transform="translate(368.829 -60.488)" fill="#efefef"/>
    </g>
    <g id="Group_2493" data-name="Group 2493" transform="translate(31.558 1.919)">
      <path id="Path_4615" data-name="Path 4615" d="M-251.234,68.381l.97-1.023,1.941,2.046-.97,1.023Z" transform="translate(251.234 -67.358)" fill="#a4afc1"/>
    </g>
    <g id="Group_2494" data-name="Group 2494" transform="translate(37.138 7.801)">
      <path id="Path_4616" data-name="Path 4616" d="M-230.175,89.443l.97-1.023,1.941,2.046-.97,1.023Z" transform="translate(230.175 -88.42)" fill="#a4afc1"/>
    </g>
    <g id="Group_2495" data-name="Group 2495" transform="translate(31.315 7.801)">
      <path id="Path_4617" data-name="Path 4617" d="M-252.148,90.465l1.941-2.046.971,1.023-1.941,2.046Z" transform="translate(252.148 -88.419)" fill="#a4afc1"/>
    </g>
    <g id="Group_2496" data-name="Group 2496" transform="translate(36.896 1.919)">
      <path id="Path_4618" data-name="Path 4618" d="M-231.086,69.406l1.941-2.046.97,1.023-1.941,2.046Z" transform="translate(231.086 -67.36)" fill="#a4afc1"/>
    </g>
    <g id="Group_2497" data-name="Group 2497" transform="translate(6.52 8.922)">
      <path id="Path_4619" data-name="Path 4619" d="M-334.058,109.071v-1.334a2.976,2.976,0,0,0-.8-2.046l-1.941-2.046V99.395a7.5,7.5,0,0,0-1.22-4.117l-1.868-2.845-1.868,2.845a7.506,7.506,0,0,0-1.22,4.117v4.251l-1.941,2.046a2.977,2.977,0,0,0-.8,2.046v1.334Z" transform="translate(345.725 -92.433)" fill="#00aeef"/>
    </g>
    <g id="Group_2498" data-name="Group 2498" transform="translate(6.52 8.922)">
      <path id="Path_4620" data-name="Path 4620" d="M-341.833,105.691l1.941-2.046V99.395a7.506,7.506,0,0,1,1.22-4.117l.324-.493-1.544-2.351-1.868,2.845a7.506,7.506,0,0,0-1.22,4.117v4.251l-1.941,2.046a2.977,2.977,0,0,0-.8,2.046v1.334h3.088v-1.334A2.977,2.977,0,0,1-341.833,105.691Z" transform="translate(345.725 -92.433)" fill="aqua"/>
    </g>
    <g id="Group_2499" data-name="Group 2499" transform="translate(5.49 7.866)">
      <path id="Path_4621" data-name="Path 4621" d="M-336.914,107.432h-11.667a1.059,1.059,0,0,1-1.03-1.085v-1.332A4.062,4.062,0,0,1-348.5,102.2l1.639-1.729v-3.8a8.6,8.6,0,0,1,1.4-4.735l1.868-2.843a1.034,1.034,0,0,1,1.692,0l1.868,2.844a8.986,8.986,0,0,1,1.4,4.825h-2.059a6.68,6.68,0,0,0-1.038-3.591l-1.021-1.555-1.021,1.555a6.341,6.341,0,0,0-1.038,3.5v4.251a1.11,1.11,0,0,1-.3.767l-1.941,2.046a1.853,1.853,0,0,0-.5,1.28v.247h9.608v-.247a1.848,1.848,0,0,0-.5-1.279l-1.941-2.047a1.116,1.116,0,0,1-.3-.767V99.475h2.059v1l1.639,1.727a4.063,4.063,0,0,1,1.106,2.814v1.332a1.059,1.059,0,0,1-1.029,1.086Z" transform="translate(349.611 -88.653)" fill="#0072bc"/>
    </g>
    <g id="Group_2500" data-name="Group 2500" transform="translate(14.412 25.56)">
      <path id="Path_4622" data-name="Path 4622" d="M-315.94,152.005h2.059V154.9h-2.059Z" transform="translate(315.94 -152.005)" fill="#0072bc"/>
    </g>
    <g id="Group_2501" data-name="Group 2501" transform="translate(8.236 25.56)">
      <path id="Path_4623" data-name="Path 4623" d="M-339.25,152.005h2.059V154.9h-2.059Z" transform="translate(339.25 -152.005)" fill="#0072bc"/>
    </g>
    <g id="Group_2502" data-name="Group 2502" transform="translate(6.491 14.447)">
      <path id="Path_4624" data-name="Path 4624" d="M-345.66,134.658h-.174l.057-2.17c.918.023,22.614.4,27.76-20.271l1.992.551c-5.315,21.338-27.437,21.891-29.634,21.891Z" transform="translate(345.834 -112.216)" fill="#0072bc"/>
    </g>
    <g id="Group_2503" data-name="Group 2503" transform="translate(30.373 13.624)">
      <path id="Path_4625" data-name="Path 4625" d="M-249.05,115.6l-2.059-3.759-3.566,2.17-1.029-1.879,4.458-2.713a1,1,0,0,1,1.406.4l2.574,4.7Z" transform="translate(255.705 -109.268)" fill="#0072bc"/>
    </g>
    <g id="Group_2504" data-name="Group 2504" transform="translate(34.315 23.39)">
      <path id="Path_4626" data-name="Path 4626" d="M-240.827,144.235h2.059V162.32h-2.059Z" transform="translate(240.827 -144.235)" fill="#0072bc"/>
    </g>
    <g id="Group_2505" data-name="Group 2505" transform="translate(26.079 32.793)">
      <path id="Path_4627" data-name="Path 4627" d="M-271.908,177.906h2.059v8.681h-2.059Z" transform="translate(271.908 -177.906)" fill="#0072bc"/>
    </g>
    <g id="Group_2506" data-name="Group 2506" transform="translate(17.844 37.134)">
      <path id="Path_4628" data-name="Path 4628" d="M-302.989,193.446h2.059v4.34h-2.059Z" transform="translate(302.989 -193.446)" fill="#0072bc"/>
    </g>
    <g id="Group_2507" data-name="Group 2507" transform="translate(9.608 38.581)">
      <path id="Path_4629" data-name="Path 4629" d="M-334.07,198.626h2.059v2.894h-2.059Z" transform="translate(334.07 -198.626)" fill="#0072bc"/>
    </g>
    <g id="Group_2508" data-name="Group 2508" transform="translate(0 39.666)">
      <path id="Path_4630" data-name="Path 4630" d="M-370.331,202.512h43.923v2.17h-43.923Z" transform="translate(370.331 -202.512)" fill="#0072bc"/>
    </g>
  </g>
</svg>
