<svg xmlns="http://www.w3.org/2000/svg" width="38.667" height="34.878" viewBox="0 0 38.667 34.878">
  <g id="Group_2539" data-name="Group 2539" transform="translate(0)">
    <path id="Path_4715" data-name="Path 4715" d="M-4174.62,2483.609c0-7.678,3.977-12.951,3.977-16.651s-2.126-11.47-19.146-11.47-19.521,10.454-19.521,14.523C-4209.31,2489.068-4174.62,2497.208-4174.62,2483.609Z" transform="translate(4209.31 -2455.488)" fill="#efefef"/>
    <g id="Group_2538" data-name="Group 2538" transform="translate(26.995 7.342)">
      <path id="Path_4716" data-name="Path 4716" d="M-3863.456,2550.33l.785-.785,1.57,1.57-.785.785Z" transform="translate(3863.456 -2549.545)" fill="#a4afc1"/>
      <path id="Path_4717" data-name="Path 4717" d="M-3805.638,2608.158l.785-.785,1.57,1.57-.785.784Z" transform="translate(3810.151 -2602.86)" fill="#a4afc1"/>
      <path id="Path_4718" data-name="Path 4718" d="M-3808.125,2551.193l1.57-1.57.785.785-1.57,1.57Z" transform="translate(3812.443 -2549.617)" fill="#a4afc1"/>
    </g>
    <path id="Path_4719" data-name="Path 4719" d="M-4107.726,2662.025c0,1.073-3.106,1.943-6.937,1.943s-6.938-.87-6.938-1.943v-4.441h13.876Z" transform="translate(4128.448 -2641.81)" fill="#00aeef"/>
    <path id="Path_4720" data-name="Path 4720" d="M-4107.726,2605.136c0,1.072-3.106,1.942-6.937,1.942s-6.938-.87-6.938-1.942v-4.44h13.876Z" transform="translate(4128.448 -2589.361)" fill="#f3f3f1"/>
    <path id="Path_4721" data-name="Path 4721" d="M-4107.726,2548.248c0,1.073-3.106,1.943-6.937,1.943s-6.938-.87-6.938-1.943v-4.44h13.876Z" transform="translate(4128.448 -2536.914)" fill="#00aeef"/>
    <ellipse id="Ellipse_540" data-name="Ellipse 540" cx="6.938" cy="1.943" rx="6.938" ry="1.943" transform="translate(6.846 4.951)" fill="#f3f3f1"/>
    <path id="Path_4722" data-name="Path 4722" d="M-4119.1,2605.136v-2.775l-2.5-1.665v4.44c0,1.072,3.106,1.942,6.938,1.942.427,0,.843-.012,1.248-.033C-4116.649,2606.88-4119.1,2606.089-4119.1,2605.136Z" transform="translate(4128.448 -2589.361)" fill="#d5dbe1"/>
    <path id="Path_4723" data-name="Path 4723" d="M-4119.1,2520.861c0-.953,2.455-1.745,5.688-1.909-.405-.021-.821-.033-1.248-.033-3.833,0-6.938.87-6.938,1.942s3.106,1.943,6.938,1.943c.427,0,.843-.012,1.248-.033C-4116.649,2522.606-4119.1,2521.814-4119.1,2520.861Z" transform="translate(4128.448 -2513.967)" fill="#d5dbe1"/>
    <path id="Path_4724" data-name="Path 4724" d="M-4119.1,2662.025v-2.775l-2.5-1.666v4.441c0,1.073,3.106,1.943,6.938,1.943.427,0,.843-.012,1.248-.033C-4116.649,2663.77-4119.1,2662.979-4119.1,2662.025Z" transform="translate(4128.448 -2641.81)" fill="aqua"/>
    <path id="Path_4725" data-name="Path 4725" d="M-4119.1,2548.248v-3.053l-2.5-1.388v4.44c0,1.073,3.106,1.943,6.938,1.943.427,0,.843-.012,1.248-.033C-4116.649,2549.993-4119.1,2549.2-4119.1,2548.248Z" transform="translate(4128.448 -2536.914)" fill="aqua"/>
    <path id="Path_4726" data-name="Path 4726" d="M-4124.5,2513.8c-.8,0-7.771-.078-7.771-2.775s6.975-2.775,7.771-2.775,7.771.078,7.771,2.775S-4123.7,2513.8-4124.5,2513.8Zm-6.034-2.775c.523.445,2.716,1.11,6.034,1.11s5.512-.665,6.035-1.11c-.523-.445-2.717-1.11-6.035-1.11s-5.511.665-6.034,1.11Z" transform="translate(4138.281 -2504.133)" fill="#0072bc"/>
    <path id="Path_4727" data-name="Path 4727" d="M-4124.5,2602.239c-.8,0-7.771-.078-7.771-2.775h1.665c.244.332,2.518,1.11,6.105,1.11s5.863-.778,6.129-1.214l1.642.1C-4116.727,2602.161-4123.7,2602.239-4124.5,2602.239Z" transform="translate(4138.281 -2588.129)" fill="#0072bc"/>
    <path id="Path_4728" data-name="Path 4728" d="M-4124.5,2659.127c-.8,0-7.771-.078-7.771-2.775h1.665c.244.332,2.518,1.11,6.105,1.11s5.863-.779,6.129-1.215l1.642.1C-4116.727,2659.049-4123.7,2659.127-4124.5,2659.127Z" transform="translate(4138.281 -2640.578)" fill="#0072bc"/>
    <path id="Path_4729" data-name="Path 4729" d="M-4124.5,2559.9c-.8,0-7.771-.078-7.771-2.775v-13.321h1.665v13.321c.242.333,2.514,1.11,6.105,1.11a19.985,19.985,0,0,0,3.979-.371l.345,1.63A21.334,21.334,0,0,1-4124.5,2559.9Z" transform="translate(4138.281 -2536.914)" fill="#0072bc"/>
    <path id="Path_4730" data-name="Path 4730" d="M-3954.491,2543.807h1.666v12.766h-1.666Z" transform="translate(3974.38 -2536.914)" fill="#0072bc"/>
    <circle id="Ellipse_541" data-name="Ellipse 541" cx="5.537" cy="5.537" r="5.537" transform="translate(18.274 17.225)" fill="#00aeef"/>
    <path id="Path_4731" data-name="Path 4731" d="M-3973.018,2681.705a5.539,5.539,0,0,1,4.454-5.43,5.577,5.577,0,0,0-1.083-.107,5.537,5.537,0,0,0-5.537,5.537,5.537,5.537,0,0,0,5.537,5.538,5.429,5.429,0,0,0,1.083-.108A5.536,5.536,0,0,1-3973.018,2681.705Z" transform="translate(3993.459 -2658.943)" fill="aqua"/>
    <path id="Path_4732" data-name="Path 4732" d="M-3978.178,2679.434a6.267,6.267,0,0,1-6.26-6.259,6.267,6.267,0,0,1,6.26-6.26,6.267,6.267,0,0,1,6.26,6.26A6.267,6.267,0,0,1-3978.178,2679.434Zm0-11.074a4.82,4.82,0,0,0-4.815,4.815,4.82,4.82,0,0,0,4.815,4.815,4.82,4.82,0,0,0,4.815-4.815A4.82,4.82,0,0,0-3978.178,2668.359Z" transform="translate(4001.99 -2650.412)" fill="#0072bc"/>
    <path id="Path_4733" data-name="Path 4733" d="M-3913.492,2713.183h1.445v5.3h-1.445Z" transform="translate(3936.582 -2693.069)" fill="#0072bc"/>
    <path id="Path_4734" data-name="Path 4734" d="M-3938.169,2737.86h5.3v1.444h-5.3Z" transform="translate(3959.333 -2715.82)" fill="#0072bc"/>
  </g>
</svg>
