<svg xmlns="http://www.w3.org/2000/svg" width="42.108" height="36.241" viewBox="0 0 42.108 36.241">
  <g id="Group_2554" data-name="Group 2554" transform="translate(0 0)">
    <path id="Path_4768" data-name="Path 4768" d="M-4588.195,3908.138c-1.967,7.274-7.086,11.25-8.034,14.756s-.922,11.411,15.2,15.771,21.169-4.9,22.21-8.76c4.882-18.053-25.9-34.65-29.379-21.767Z" transform="translate(4600.4 -3903.565)" fill="#efefef"/>
    <g id="effect" transform="translate(0 7.91)">
      <g id="Group_2551" data-name="Group 2551" transform="translate(0)">
        <g id="Group_2548" data-name="Group 2548" transform="translate(0 5.777)">
          <path id="Path_4769" data-name="Path 4769" d="M-4612.183,4084.565l-.413-1.489,2.978-.826.414,1.49Z" transform="translate(4612.595 -4082.25)" fill="#a4afc1"/>
        </g>
        <g id="Group_2549" data-name="Group 2549" transform="translate(5.868 8.567)">
          <path id="Path_4770" data-name="Path 4770" d="M-4535.166,4122.062l-.826-2.979,1.49-.413.826,2.979Z" transform="translate(4535.992 -4118.669)" fill="#a4afc1"/>
        </g>
        <g id="Group_2550" data-name="Group 2550" transform="translate(3.494)">
          <path id="Path_4771" data-name="Path 4771" d="M-4566.152,4010.221l-.826-2.979,1.489-.413.825,2.979Z" transform="translate(4566.978 -4006.829)" fill="#a4afc1"/>
        </g>
      </g>
      <g id="Group_2552" data-name="Group 2552" transform="translate(35.927 11.579)">
        <path id="Path_4772" data-name="Path 4772" d="M-4141.236,4162.639a2.322,2.322,0,0,1-2.319-2.318,2.323,2.323,0,0,1,2.319-2.319,2.322,2.322,0,0,1,2.319,2.319A2.321,2.321,0,0,1-4141.236,4162.639Zm0-3.092a.776.776,0,0,0-.773.774.775.775,0,0,0,.773.773.775.775,0,0,0,.773-.773A.775.775,0,0,0-4141.236,4159.546Z" transform="translate(4143.555 -4158.001)" fill="#a4afc1"/>
      </g>
    </g>
    <g id="Group_2553" data-name="Group 2553" transform="translate(5.774 4.25)">
      <path id="Path_4773" data-name="Path 4773" d="M-4481.086,3961.86c.1.209.183.415.3.6.574.955,1.159,1.9,1.73,2.859a.361.361,0,0,0,.373.2c.875-.03,1.75-.045,2.625-.06a.323.323,0,0,0,.323-.2q.62-1.171,1.268-2.327a.321.321,0,0,0-.008-.378c-.637-1.032-1.265-2.069-1.9-3.1-.068-.111-.152-.211-.229-.315l.057-.093a12.156,12.156,0,0,1,1.345.178,5.316,5.316,0,0,1,4.048,5.91,8.877,8.877,0,0,1-.516,1.68.5.5,0,0,0,.031.494q4.529,7.413,9.047,14.832a2.765,2.765,0,0,1,.413,1.874,2.533,2.533,0,0,1-3.669,1.835,2.837,2.837,0,0,1-1.057-1.034q-4.5-7.4-9-14.8a.377.377,0,0,0-.388-.209,5.334,5.334,0,0,1-5.4-4.193,5.3,5.3,0,0,1,.456-3.6.351.351,0,0,1,.036-.063A1.241,1.241,0,0,1-4481.086,3961.86Zm17.463,22.406a.961.961,0,0,0-.724-1.16.969.969,0,0,0-1.145.723.952.952,0,0,0,.707,1.149A.946.946,0,0,0-4463.623,3984.266Z" transform="translate(4486.938 -3959.048)" fill="aqua"/>
      <path id="Path_4774" data-name="Path 4774" d="M-4533.211,3964.252a1.156,1.156,0,0,0-.115.085.335.335,0,0,0-.036.063,5.3,5.3,0,0,0-.456,3.6,5.334,5.334,0,0,0,5.4,4.193.381.381,0,0,1,.389.21q4.5,7.4,9,14.8a2.844,2.844,0,0,0,1.056,1.034,2.534,2.534,0,0,0,3.67-1.836,2.763,2.763,0,0,0-.413-1.873q-4.527-7.415-9.047-14.832a.5.5,0,0,1-.031-.494,8.937,8.937,0,0,0,.517-1.681,5.316,5.316,0,0,0-4.049-5.909,12.169,12.169,0,0,0-1.345-.178l-.055.093c.076.1.16.205.228.316.633,1.033,1.261,2.071,1.9,3.1a.321.321,0,0,1,.008.377q-.649,1.157-1.268,2.328a.323.323,0,0,1-.322.2c-.875.013-1.751.03-2.626.06a.361.361,0,0,1-.372-.2c-.573-.956-1.158-1.9-1.731-2.859C-4533.028,3964.668-4533.11,3964.461-4533.211,3964.252Zm21.5.577a.139.139,0,0,0-.039.014q-4.049,2.468-8.1,4.941a.464.464,0,0,0-.178.266,2.567,2.567,0,0,1-.687,1.28c-.123.12-.1.206-.022.334q.8,1.27,1.579,2.549a2.294,2.294,0,0,1,.138.336,2.9,2.9,0,0,1,1.768-.063.436.436,0,0,0,.287-.087q3.423-2.079,6.843-4.165c.418-.255.844-.5,1.259-.74Zm-20.878,14.982-.192-.267c-.251.117-.489.244-.74.343a3.775,3.775,0,0,0-1.379.95c-.364.386-.762.741-1.145,1.111s-.787.763-1.172,1.137l.408.688c.08-.024.158-.046.234-.073,1.015-.344,2.02-.725,3.047-1.024a7.617,7.617,0,0,0,1.913-1.212l-.17-.336,5.227-3.166c-.267-.457-.516-.885-.786-1.348Z" transform="translate(4537.217 -3961.258)" fill="#efefef"/>
      <path id="Path_4775" data-name="Path 4775" d="M-4493.835,3964.252c.1.209.183.415.3.6.573.955,1.159,1.9,1.73,2.859a.362.362,0,0,0,.373.2c.875-.03,1.75-.047,2.625-.06a.322.322,0,0,0,.322-.2q.62-1.171,1.268-2.328a.321.321,0,0,0-.008-.377c-.637-1.032-1.264-2.069-1.9-3.1-.068-.111-.152-.211-.229-.316l.057-.093a12.213,12.213,0,0,1,1.344.178,5.314,5.314,0,0,1,4.049,5.909,8.863,8.863,0,0,1-.516,1.681.5.5,0,0,0,.03.494q4.527,7.413,9.048,14.832a2.768,2.768,0,0,1,.413,1.873,2.534,2.534,0,0,1-3.67,1.836,2.84,2.84,0,0,1-1.057-1.034q-4.5-7.4-9-14.8a.379.379,0,0,0-.389-.21,5.333,5.333,0,0,1-5.4-4.193,5.293,5.293,0,0,1,.455-3.6.363.363,0,0,1,.036-.063A1.017,1.017,0,0,1-4493.835,3964.252Zm17.463,22.407a.961.961,0,0,0-.724-1.16.969.969,0,0,0-1.145.722.951.951,0,0,0,.707,1.149A.946.946,0,0,0-4476.373,3986.66Z" transform="translate(4497.841 -3961.258)" fill="none" stroke="#0072bc" stroke-miterlimit="10" stroke-width="2"/>
      <path id="Path_4776" data-name="Path 4776" d="M-4313.759,4005.676c.949,1.552,1.888,3.088,2.852,4.663-.415.244-.84.487-1.26.74q-3.421,2.083-6.842,4.166a.435.435,0,0,1-.288.087,2.9,2.9,0,0,0-1.768.063,2.2,2.2,0,0,0-.137-.336q-.784-1.278-1.58-2.549c-.08-.128-.1-.215.022-.334a2.559,2.559,0,0,0,.686-1.28.464.464,0,0,1,.179-.266q4.044-2.477,8.1-4.941A.172.172,0,0,1-4313.759,4005.676Z" transform="translate(4339.265 -4002.105)" fill="aqua"/>
      <path id="Path_4777" data-name="Path 4777" d="M-4526.1,4155.041q2.626-1.6,5.245-3.2l.785,1.349-5.226,3.166c.063.125.11.218.169.336a7.58,7.58,0,0,1-1.911,1.212c-1.027.3-2.033.68-3.048,1.025-.077.026-.154.048-.234.073-.136-.23-.268-.452-.407-.687.386-.375.778-.757,1.172-1.138s.781-.724,1.145-1.11a3.784,3.784,0,0,1,1.38-.95c.249-.1.488-.226.739-.343Z" transform="translate(4531.228 -4137.075)" fill="aqua"/>
      <path id="Path_4778" data-name="Path 4778" d="M-4306.842,4018.211l2.851,4.663c-.414.244-.839.486-1.258.74q-3.422,2.082-6.843,4.165a.432.432,0,0,1-.287.087,2.909,2.909,0,0,0-1.767.063,2.259,2.259,0,0,0-.138-.336q-.782-1.279-1.578-2.549c-.081-.128-.1-.215.022-.334a2.556,2.556,0,0,0,.685-1.28.471.471,0,0,1,.179-.267q4.044-2.477,8.1-4.941A.234.234,0,0,1-4306.842,4018.211Z" transform="translate(4332.878 -4013.679)" fill="#0072bc"/>
      <path id="Path_4779" data-name="Path 4779" d="M-4521.076,4164.475l5.246-3.2c.269.463.518.891.785,1.348l-5.225,3.166c.062.126.109.219.17.337a7.635,7.635,0,0,1-1.913,1.212c-1.028.3-2.032.68-3.047,1.025-.078.026-.156.048-.235.073-.136-.229-.267-.452-.408-.687.386-.375.778-.756,1.172-1.137s.78-.726,1.144-1.111a3.792,3.792,0,0,1,1.38-.95c.25-.1.488-.226.739-.343Z" transform="translate(4526.586 -4145.786)" fill="#0072bc"/>
      <path id="Path_4780" data-name="Path 4780" d="M-4279.777,4276.415a.946.946,0,0,1-1.163.712.952.952,0,0,1-.706-1.149.968.968,0,0,1,1.144-.723A.961.961,0,0,1-4279.777,4276.415Z" transform="translate(4301.246 -4251.014)" fill="#fff"/>
    </g>
  </g>
</svg>
