<svg id="Group_2485" data-name="Group 2485" xmlns="http://www.w3.org/2000/svg" width="51.124" height="48.868" viewBox="0 0 51.124 48.868">
  <path id="Path_4557" data-name="Path 4557" d="M49.754,27.889a33.1,33.1,0,0,1-3.067-6.525A53.8,53.8,0,0,1,45,15.218c-.428-1.933-.768-3.725-1.165-5.3a14.373,14.373,0,0,0-1.5-3.98,12.865,12.865,0,0,0-3-3.38A11.91,11.91,0,0,0,33.89.192a18.179,18.179,0,0,0-8.4.8A44.468,44.468,0,0,0,13.6,7.143a36.627,36.627,0,0,0-9.873,9.6A21.5,21.5,0,0,0,.179,25.8,19.453,19.453,0,0,0,.63,33.329a18.62,18.62,0,0,0,2.111,5.049,21.684,21.684,0,0,0,14.4,9.714A36.368,36.368,0,0,0,34.92,47.079c5.625-1.7,10.528-4.57,13.426-7.974S52.14,31.759,49.754,27.889Z" transform="translate(0 0)" fill="#efefef"/>
  <path id="Path_4558" data-name="Path 4558" d="M13.8,0,1.453.006A1.373,1.373,0,0,0,.889.128,1.462,1.462,0,0,0,.427.458,1.557,1.557,0,0,0,.115.947a1.6,1.6,0,0,0-.115.6V10a1.573,1.573,0,0,0,.008.162,1.511,1.511,0,0,0,.025.158,1.407,1.407,0,0,0,.041.152,1.275,1.275,0,0,0,.057.143s0,.007,0,.01a.02.02,0,0,0,0,.007l0,.006.008.009a1.473,1.473,0,0,0,.518.642,1.407,1.407,0,0,0,.371.184,1.36,1.36,0,0,0,.419.065L13.8,11.523a1.365,1.365,0,0,0,.563-.122,1.463,1.463,0,0,0,.461-.331,1.561,1.561,0,0,0,.312-.489,1.6,1.6,0,0,0,.114-.6V1.536a1.6,1.6,0,0,0-.114-.6,1.554,1.554,0,0,0-.312-.488,1.458,1.458,0,0,0-.461-.33A1.366,1.366,0,0,0,13.8,0Z" transform="translate(14.333 4.992)" fill="#f3f3f1"/>
  <path id="Path_4559" data-name="Path 4559" d="M3.416,10.641l-.008-.009,0-.006a.02.02,0,0,1,0-.007s0-.006,0-.01a1.258,1.258,0,0,1-.058-.143,1.391,1.391,0,0,1-.041-.152,1.5,1.5,0,0,1-.025-.158,1.569,1.569,0,0,1-.008-.161V1.538a1.6,1.6,0,0,1,.115-.6A1.556,1.556,0,0,1,3.7.452a1.463,1.463,0,0,1,.462-.33A1.373,1.373,0,0,1,4.723,0H1.453A1.373,1.373,0,0,0,.889.123,1.462,1.462,0,0,0,.427.454,1.557,1.557,0,0,0,.115.943,1.6,1.6,0,0,0,0,1.54V10a1.573,1.573,0,0,0,.008.162,1.511,1.511,0,0,0,.025.158,1.407,1.407,0,0,0,.041.152,1.275,1.275,0,0,0,.057.143s0,.007,0,.01a.02.02,0,0,0,0,.007l0,.006.008.009a1.473,1.473,0,0,0,.518.642,1.407,1.407,0,0,0,.371.184,1.36,1.36,0,0,0,.419.065l3.27,0a1.361,1.361,0,0,1-.419-.065,1.4,1.4,0,0,1-.371-.184A1.462,1.462,0,0,1,3.63,11a1.478,1.478,0,0,1-.214-.36Z" transform="translate(14.333 4.997)" fill="#d5dbe1"/>
  <path id="Path_4560" data-name="Path 4560" d="M15.09,4.549l.015,1.536a1.6,1.6,0,0,1-.108.6,1.562,1.562,0,0,1-.306.493,1.464,1.464,0,0,1-.458.336,1.368,1.368,0,0,1-.562.128l-12.34.165a1.359,1.359,0,0,1-.42-.06,1.4,1.4,0,0,1-.373-.179,1.463,1.463,0,0,1-.523-.636L.006,6.922l0-.006a.016.016,0,0,1,0-.006S0,6.9,0,6.9l4.666-5.29L6.883,3.766,10.2,0Z" transform="translate(14.496 8.8)" fill="#00aeef"/>
  <path id="Path_4561" data-name="Path 4561" d="M3.648,5.316,3.64,5.307l0-.006a.017.017,0,0,1,0-.006s0-.005,0-.009L6.619,1.9,4.666,0,0,5.291S0,5.3,0,5.3a.017.017,0,0,0,0,.006l0,.006.009.009a1.469,1.469,0,0,0,.524.635,1.406,1.406,0,0,0,.373.179,1.364,1.364,0,0,0,.419.061l3.356-.045a1.424,1.424,0,0,1-1.039-.835Z" transform="translate(14.496 10.41)" fill="aqua"/>
  <g id="Group_2484" data-name="Group 2484" transform="translate(1.298 0)">
    <path id="Path_4562" data-name="Path 4562" d="M0,1.1,1.028.007,3.087,2.176,2.058,3.268Z" transform="translate(5.919 39.197)" fill="#a4afc1"/>
    <path id="Path_4563" data-name="Path 4563" d="M0,1.1,1.029.006l2.06,2.17L2.06,3.268Z" transform="translate(0 32.957)" fill="#a4afc1"/>
    <path id="Path_4564" data-name="Path 4564" d="M0,2.189,2.059,0l1.03,1.085L1.03,3.273Z" transform="translate(0.261 39.209)" fill="#a4afc1"/>
    <path id="Path_4565" data-name="Path 4565" d="M2.172,4.6a2.054,2.054,0,0,1-.844-.181,2.176,2.176,0,0,1-.69-.494A2.322,2.322,0,0,1,.171,3.2a2.43,2.43,0,0,1,0-1.79A2.324,2.324,0,0,1,.637.675a2.178,2.178,0,0,1,.69-.494,2.056,2.056,0,0,1,1.688,0A2.176,2.176,0,0,1,3.7.675a2.323,2.323,0,0,1,.465.732,2.43,2.43,0,0,1,0,1.79,2.324,2.324,0,0,1-.465.732,2.177,2.177,0,0,1-.69.494A2.051,2.051,0,0,1,2.172,4.6Zm0-3.069a.686.686,0,0,0-.282.061.727.727,0,0,0-.23.165A.775.775,0,0,0,1.5,2a.809.809,0,0,0,0,.6.775.775,0,0,0,.155.244.726.726,0,0,0,.23.165.686.686,0,0,0,.564,0,.726.726,0,0,0,.23-.165A.776.776,0,0,0,2.838,2.6a.81.81,0,0,0,0-.6.775.775,0,0,0-.155-.244.725.725,0,0,0-.23-.165A.684.684,0,0,0,2.172,1.535Z" transform="translate(37.181 0)" fill="#a4afc1"/>
  </g>
  <path id="Path_4566" data-name="Path 4566" d="M0,0,2.172,0V2.3L0,2.3Z" transform="translate(34.498 9.978)" fill="#0072bc"/>
  <path id="Path_4567" data-name="Path 4567" d="M0,0H2.172V2.3H0Z" transform="translate(34.498 3.838)" fill="#0072bc"/>
  <path id="Path_4568" data-name="Path 4568" d="M0,0,2.172,0V2.3L0,2.306Z" transform="translate(34.498 16.118)" fill="#0072bc"/>
  <path id="Path_4569" data-name="Path 4569" d="M0,.058,29.766,0V2.3L0,2.367Z" transform="translate(6.905 22.259)" fill="#0072bc"/>
  <path id="Path_4570" data-name="Path 4570" d="M0,.074,29.766,0V2.3L0,2.382Z" transform="translate(6.905 28.399)" fill="#0072bc"/>
  <path id="Path_4571" data-name="Path 4571" d="M0,.09,29.766,0V2.3L0,2.4Z" transform="translate(6.905 34.539)" fill="#0072bc"/>
  <path id="Path_4572" data-name="Path 4572" d="M14.885,13.827l-12.341.019a2.35,2.35,0,0,1-.979-.214,2.6,2.6,0,0,1-.81-.582A2.77,2.77,0,0,1,.2,12.193,2.738,2.738,0,0,1,0,11.158V2.7A2.813,2.813,0,0,1,.2,1.651,2.717,2.717,0,0,1,.746.795,2.552,2.552,0,0,1,1.555.217,2.411,2.411,0,0,1,2.544.005L14.885,0a2.4,2.4,0,0,1,.987.211,2.543,2.543,0,0,1,.807.576,2.71,2.71,0,0,1,.544.854,2.811,2.811,0,0,1,.2,1.045v8.447a2.812,2.812,0,0,1-.2,1.045,2.717,2.717,0,0,1-.544.855,2.55,2.55,0,0,1-.807.578A2.4,2.4,0,0,1,14.885,13.827ZM2.544,2.312a.345.345,0,0,0-.141.03.364.364,0,0,0-.116.082.388.388,0,0,0-.078.122.4.4,0,0,0-.029.15v8.459a.3.3,0,0,0,.031.121.529.529,0,0,0,.081.125.462.462,0,0,0,.116.1.273.273,0,0,0,.136.039l12.341-.017a.347.347,0,0,0,.142-.03.363.363,0,0,0,.115-.082.386.386,0,0,0,.078-.122.4.4,0,0,0,.028-.15V2.689a.4.4,0,0,0-.028-.15.386.386,0,0,0-.078-.122.362.362,0,0,0-.115-.082.346.346,0,0,0-.142-.03Z" transform="translate(13.088 3.84)" fill="#0072bc"/>
  <path id="Path_4573" data-name="Path 4573" d="M1.578,8.516,0,6.925,4.525,1.9a1.092,1.092,0,0,1,.353-.262,1.036,1.036,0,0,1,.817-.025,1.075,1.075,0,0,1,.366.241l1.4,1.4L10.071.362A1.083,1.083,0,0,1,10.417.1a1.032,1.032,0,0,1,.8-.034,1.068,1.068,0,0,1,.364.23L16.43,4.9,14.978,6.618,10.915,2.76,8.292,5.674a1.1,1.1,0,0,1-.353.262,1.042,1.042,0,0,1-.406.1,1.032,1.032,0,0,1-.41-.071,1.076,1.076,0,0,1-.366-.241l-1.4-1.4Z" transform="translate(13.721 7.679)" fill="#0072bc"/>
</svg>
